<svg width="24" height="24" viewBox="0 0 24 24" fill="none" xmlns="http://www.w3.org/2000/svg">
<path d="M6 11H18M6 11C6 12 6 13 6 13M6 11C6 10 6.36177 9.72834 6.79275 9M18 11V13M18 11C18 10 17.6382 9.72834 17.2073 9M3 14C3.33333 13.6667 4.4 13 6 13M6 13C6 13 6 12.5 6 14C6 15.5 6.62749 16.9847 7.51303 18M21 14C20.6667 13.6667 19.6 13 18 13M18 13C18 13 18 12.5 18 14C18 15.5 17.3855 16.9847 16.5 18M4 6C4.19516 7 5.02694 9 6.79275 9M6.79275 9C7.49845 7.80737 8.68266 6.60675 10.5 6.17117M20 6C19.6382 7 18.5731 9 17.2073 9M17.2073 9C16.5181 7.83528 15.3725 6.66294 13.6265 6.203M15 3L13.6265 6.203M13.6265 6.203C13.1334 6.07308 12.5923 6 12 6C11.458 6 10.9588 6.0612 10.5 6.17117M9 3L10.5 6.17117M5 20C5.00869 19.3333 5.52345 18 7.51303 18M7.51303 18C8.47178 19.0992 9.92061 20 12 20C14.0794 20 15.5413 19.0992 16.5 18M19 20C18.9913 19.3333 18.4896 18 16.5 18"/>
</svg>
