<svg width="22" height="18" viewBox="0 0 22 18" fill="none" xmlns="http://www.w3.org/2000/svg">
<path d="M5 1L4.65836 1.17082C3.64201 1.679 3 2.71779 3 3.8541V6.76393C3 7.52148 2.572 8.214 1.89443 8.55279L1 9L1.89443 9.44721C2.572 9.786 3 10.4785 3 11.2361V14.1459C3 15.2822 3.64201 16.321 4.65836 16.8292L5 17"/>
<path d="M17 1L17.3416 1.17082C18.358 1.679 19 2.71779 19 3.8541V6.76393C19 7.52148 19.428 8.214 20.1056 8.55279L21 9L20.1056 9.44721C19.428 9.786 19 10.4785 19 11.2361V14.1459C19 15.2822 18.358 16.321 17.3416 16.8292L17 17"/>
<path d="M8 13H8.01"/>
<path d="M14 13H14.01"/>
<path d="M11 13H11.01"/>
</svg>
