<svg width="53" height="39" viewBox="0 0 53 39" fill="none" xmlns="http://www.w3.org/2000/svg">
<path vector-effect="non-scaling-stroke" d="M41 10V5C41 2.79086 39.2091 1 37 1H5C2.79086 1 1 2.79086 1 5V26C1 28.2091 2.79086 30 5 30H26"/>
<path vector-effect="non-scaling-stroke" d="M16 38H26"/>
<path vector-effect="non-scaling-stroke" d="M21 30V38"/>
<path vector-effect="non-scaling-stroke" d="M1 24L26 24"/>
<path vector-effect="non-scaling-stroke" d="M48 15C48 13.6193 47.3807 13 46 13L31.5 13C30.1193 13 29 14.1193 29 15.5L29 35.5C29 36.8807 30.1193 38 31.5 38H35.5"/>
<path vector-effect="non-scaling-stroke" d="M50 18H40C38.8954 18 38 18.8954 38 20V36C38 37.1046 38.8954 38 40 38H50C51.1046 38 52 37.1046 52 36V20C52 18.8954 51.1046 18 50 18Z"/>
<path vector-effect="non-scaling-stroke" d="M45 34H45.01"/>
</svg>
