<svg fill="none" height="39" viewBox="0 0 53 39" width="53" xmlns="http://www.w3.org/2000/svg"><path d="m41 10v-5c0-2.20914-1.7909-4-4-4h-32c-2.20914 0-4 1.79086-4 4v21c0 2.2091 1.79086 4 4 4h21"/><path d="m16 38h10"/><path d="m21 30v8"/><path d="m1 24h25"/><path d="m48 15c0-1.3807-.6193-2-2-2h-14.5c-1.3807 0-2.5 1.1193-2.5 2.5v20c0 1.3807 1.1193 2.5 2.5 2.5h4"/><path d="m50 18h-10c-1.1046 0-2 .8954-2 2v16c0 1.1046.8954 2 2 2h10c1.1046 0 2-.8954 2-2v-16c0-1.1046-.8954-2-2-2z"/><path d="m45 34h.01"/></svg>