<svg fill="none" height="17" viewBox="0 0 26 17" width="26" xmlns="http://www.w3.org/2000/svg"><path d="m16.6382 4.41317-5.8253 9.72493c-.1201.208-.1836.4438-.1843.6839-.0007.2402.0616.4764.1805.6851.1189.2086.2904.3825.4974.5043s.4423.1873.6825.1899h11.6506c.2402-.0026.4755-.0681.6825-.1899s.3785-.2957.4974-.5043c.1189-.2087.1812-.4449.1805-.6851-.0007-.2401-.0642-.4759-.1843-.6839l-5.8253-9.72493c-.1226-.20213-.2953-.36924-.5013-.48522s-.4384-.17691-.6748-.17691-.4688.06093-.6748.17691-.3787.28309-.5013.48522z"/><path d="m17.8143 7.94824v2.75106"/><path d="m1 1h9.6286"/><path d="m1 3.75104h4.12654"/><path d="m7.18982 9.25308h2.75103"/><path d="m1 9.25308h4.12654"/><path d="m1 6.50204h7.56533"/><path d="m7.18982 3.75104h6.18978"/><path d="m17.8143 13.4503h.0069"/></svg>