<svg width="37" height="25" viewBox="0 0 37 25" fill="none" xmlns="http://www.w3.org/2000/svg">
<path d="M23.738 5.96274L15.268 20.1027C15.0934 20.4052 15.001 20.748 15 21.0973C14.999 21.4465 15.0895 21.7899 15.2624 22.0933C15.4354 22.3967 15.6847 22.6495 15.9857 22.8266C16.2867 23.0037 16.6288 23.0989 16.978 23.1027H33.918C34.2672 23.0989 34.6093 23.0037 34.9103 22.8266C35.2113 22.6495 35.4607 22.3967 35.6336 22.0933C35.8065 21.7899 35.897 21.4465 35.896 21.0973C35.8951 20.748 35.8027 20.4052 35.628 20.1027L27.158 5.96274C26.9797 5.66885 26.7287 5.42586 26.4292 5.25723C26.1297 5.08859 25.7918 5 25.448 5C25.1043 5 24.7663 5.08859 24.4668 5.25723C24.1673 5.42586 23.9163 5.66885 23.738 5.96274V5.96274Z"/>
<path d="M25.448 11.1028V15.1028"/>
<path d="M1 1H15"/>
<path d="M1 5H7"/>
<path d="M10 13H14"/>
<path d="M1 13H7"/>
<path d="M1 9H12"/>
<path d="M10 5H19"/>
<path d="M25.448 19.1028H25.458"/>
</svg>
