<?xml version="1.0" encoding="utf-8"?>
<svg width="33" height="15" viewBox="0 0 33 15" fill="none" stroke="none" version="1.1" xmlns:xlink="http://www.w3.org/1999/xlink" xmlns="http://www.w3.org/2000/svg">
  <path id="Rectangle Union" d="M13 6L14 6L14 12L13 12L13 6ZM12 10L15 10L15 11L12 11L12 10ZM3 8L4 8L4 14L3 14L3 8ZM2 11L3 11L3 15L2 15L2 11ZM1 13L2 13L2 15L1 15L1 13ZM0 14L1 14L1 15L0 15L0 14ZM9 14L11 14L11 15L9 15L9 14ZM5 14L7 14L7 15L5 15L5 14ZM5 4L11 4L11 7L5 7L5 4ZM5 11L11 11L11 13L5 13L5 11ZM6 3L10 3L10 4L6 4L6 3ZM7 1L8 1L8 2L7 2L7 1ZM8 2L9 2L9 3L8 3L8 2ZM3 0L7 0L7 2L3 2L3 0ZM2 2L5 2L5 3L2 3L2 2ZM1 1L3 1L3 2L1 2L1 1ZM5 7L6 7L6 10L5 10L5 7ZM10 8L11 8L11 10L10 10L10 8ZM6 8L8 8L8 10L6 10L6 8ZM31 11L32 11L32 13L31 13L31 11ZM19 9L21 9L21 13L19 13L19 9ZM19 7L21 7L21 8L19 8L19 7ZM30 12L31 12L31 14L30 14L30 12ZM30 4L31 4L31 6L30 6L30 4ZM30 6L31 6L31 12L30 12L30 6ZM23 8L25 8L25 10L23 10L23 8ZM27 8L28 8L28 10L27 10L27 8ZM22 7L23 7L23 10L22 10L22 7ZM18 1L20 1L20 2L18 2L18 1ZM19 2L22 2L22 3L19 3L19 2ZM20 0L24 0L24 2L20 2L20 0ZM25 2L26 2L26 3L25 3L25 2ZM24 1L25 1L25 2L24 2L24 1ZM23 3L27 3L27 4L23 4L23 3ZM22 11L28 11L28 13L22 13L22 11ZM22 4L28 4L28 7L22 7L22 4ZM22 14L24 14L24 15L22 15L22 14ZM26 14L28 14L28 15L26 15L26 14ZM31 5L32 5L32 7L31 7L31 5ZM32 7L33 7L33 11L32 11L32 7Z" style="fill:#FFFFFF;mix-blend-mode:normal;" />
</svg>