<svg fill="none" height="26" viewBox="0 0 22 26" width="22" xmlns="http://www.w3.org/2000/svg"><path d="m14.0414 4.63636c0-1.45454-1.0909-3.63636-3.6363-3.63636-.61511 0-1.90648.36415-2.8182 1.70841-.16628.24517-.31993.52294-.45455.83704-.45419 1.0598-.42111 2.49308.11079 3.76991m6.79826-2.679c0 .9697.1455 3.12728.7273 4 .2481.37212.75 1.12502 1.3182 2.01334m-2.0455-6.01334c0 .64657-.2947 1.80957-1.0712 2.86364m5.7985 9.8636c.1212-.1212.2909-.6545 0-1.8181-.2396-.9584-1.5843-3.1798-2.6818-4.8958m2.6818 6.7139.3875.8944m-.3875-.8944c-.7687 1.1364-2.9808 1.0455-3.7687.1364-.4124-.4758.3281-.8281 1-1.5 1.2675-1.2675.5869-4.0366.0869-5.3503m-2.4091 12.1685c-.2424.1212-.3636.6545 1.0909 1.8182 1.2604 1.0083 4.0679-1.005 5.8202-2.5856.4101-.3699.4087-1.0037.0182-1.3943l-.9442-.9441c-.1098-.1098-.1925-.2436-.2416-.3909l-.2651-1.0635m-5.4784 4.5602h-4.72726m4.72726 0 1.9619-3.9238c.224-.4479.7388-.6543 1.2011-.5047.0957.0309.1757.095.2445.1683.2482.2645.6368.3425.9678.1942l1.1031-.4942m-10.20566 4.5602c-.12121.7273-.72728 2.1818-2.18182 2.1818-1.18473 0-3.57566-.965-5.20789-1.7159-.52918-.2435-.718036-.8924-.41834-1.3919l.27225-.4538c.16521-.2753.18814-.6132.06165-.9084l-.30233-.7054c-.277955-.6486.19778-1.3701.9034-1.3701.17492 0 .71913-.0466 1.00146-.1342.09746-.0302.17007-.1045.22951-.1875l.5512-.7692m5.09091 5.4546-1.7074-2.2882-1.74314-2.03m-1.64037-1.1364c-.24243-.9697-.50909-3.2727.36363-4.7272.3652-.6087.85273-1.35 1.36364-2.0774m-1.72727 6.8046 1.64037 1.1364m2.0869-10.5c.3027.50823.99167.8425 1.83571 1.21121.42879.18731.91619.23074 1.34589.04538.7525-.32467 1.3506-.78191 1.8184-1.29099.1391-.15133.2666-.30723.3833-.4656m-5.3833.5c-.53472.56393-1.28994 1.54805-2 2.559m2-2.559c-.13147-.22074-.24604-.45005-.34376-.68464m-1.65624 3.24364c-.21212 1.4803-.27273 4.641 1.18182 5.441 1.45454.8 3.0303.6667 3.63638.5-.63638.9524-2.17783 2.5429-4.9051 2m5.5-13.5.5-.36364m-4.25686 2.679c1.7074 0 2.11328-.81536 2.84376-.81536.7305 0 1.9131 1 2.8833 1m-4.01966-2.86364.55995.36364m.07641-.5c0 .82843-.44771 1-1 1-.55228 0-1-.17157-1-1s.44772-1.5 1-1.5c.55229 0 1 .67157 1 1.5zm3 0c0 .82843-.4477 1-1 1s-1-.17157-1-1 .4477-1.5 1-1.5 1 .67157 1 1.5z"/></svg>