<svg width="26" height="26" viewBox="0 0 26 26" fill="none" xmlns="http://www.w3.org/2000/svg">
<path d="M7.62068 10.931L5.13792 13.4138L7.62068 15.8965"/>
<path d="M10.931 7.6207L13.4138 5.13794L15.8965 7.6207"/>
<path d="M15.8965 19.2069L13.4138 21.6897L10.931 19.2069"/>
<path d="M19.2069 10.931L21.6897 13.4138L19.2069 15.8965"/>
<path d="M5.13792 13.4138H21.6896"/>
<path d="M13.4138 5.13794V21.6897"/>
<path d="M5.13793 1H2.65517C2.21619 1 1.79519 1.17438 1.48479 1.48479C1.17438 1.79519 1 2.21619 1 2.65517V5.13793M25 5.13793V2.65517C25 2.21619 24.8256 1.79519 24.5152 1.48479C24.2048 1.17438 23.7838 1 23.3448 1H20.8621M20.8621 25H23.3448C23.7838 25 24.2048 24.8256 24.5152 24.5152C24.8256 24.2048 25 23.7838 25 23.3448V20.8621M1 20.8621V23.3448C1 23.7838 1.17438 24.2048 1.48479 24.5152C1.79519 24.8256 2.21619 25 2.65517 25H5.13793"/>
</svg>
