<svg fill="none" height="26" viewBox="0 0 26 26" width="26" xmlns="http://www.w3.org/2000/svg"><path d="m7.62068 10.931-2.48276 2.4828 2.48276 2.4827"/><path d="m10.931 7.6207 2.4828-2.48276 2.4827 2.48276"/><path d="m15.8965 19.2069-2.4827 2.4828-2.4828-2.4828"/><path d="m19.2069 10.931 2.4828 2.4828-2.4828 2.4827"/><path d="m5.13792 13.4138h16.55168"/><path d="m13.4138 5.13794v16.55176"/><path d="m5.13793 1h-2.48276c-.43898 0-.85998.17438-1.17038.48479-.31041.3104-.48479.7314-.48479 1.17038v2.48276m24 0v-2.48276c0-.43898-.1744-.85998-.4848-1.17038-.3104-.31041-.7314-.48479-1.1704-.48479h-2.4827m0 24h2.4827c.439 0 .86-.1744 1.1704-.4848s.4848-.7314.4848-1.1704v-2.4827m-24 0v2.4827c0 .439.17438.86.48479 1.1704.3104.3104.7314.4848 1.17038.4848h2.48276"/></svg>