<svg width="31" height="31" viewBox="0 0 31 31" fill="none" xmlns="http://www.w3.org/2000/svg">
<path d="M9 13L6 16L9 19"/>
<path d="M13 9L16 6L19 9"/>
<path d="M19 23L16 26L13 23"/>
<path d="M23 13L26 16L23 19"/>
<path d="M6 16H26"/>
<path d="M16 6V26"/>
<path d="M6 1H3C2.46957 1 1.96086 1.21071 1.58579 1.58579C1.21071 1.96086 1 2.46957 1 3V6M30 6V3C30 2.46957 29.7893 1.96086 29.4142 1.58579C29.0391 1.21071 28.5304 1 28 1H25M25 30H28C28.5304 30 29.0391 29.7893 29.4142 29.4142C29.7893 29.0391 30 28.5304 30 28V25M1 25V28C1 28.5304 1.21071 29.0391 1.58579 29.4142C1.96086 29.7893 2.46957 30 3 30H6"/>
</svg>
