<svg width="1304" height="694" fill="none" xmlns="http://www.w3.org/2000/svg">
<path opacity=".65" d="M1153.93 245.39a28.57 28.57 0 00-38.66 11.68l-51.25 95.65c-3.73 6.95 2.28 17.42 13.39 23.38l10.06 5.39c11.12 5.95 23.16 5.15 26.88-1.8l51.26-95.64a28.57 28.57 0 00-11.68-38.66z" fill="#fff"/>
<path d="M1084.83 418.59a18.29 18.29 0 00-23.15-28.29 18.28 18.28 0 0023.15 28.29z" fill="#fff" fill-opacity=".35"/>
<path d="M1037.83 467.58a8.58 8.58 0 10-10.87-13.27 8.58 8.58 0 0010.87 13.27z" fill="#fff" fill-opacity=".2"/>
<path d="M1050.89 438.45a14.29 14.29 0 10-18.1-22.1 14.29 14.29 0 0018.1 22.1z" fill="#fff" fill-opacity=".25"/>
<path d="M955 323.82c-1.52 28.2 20.57 52.06 46 64.59-2.13 3.75-9.45 14.91-29 23.59s-48.12-.87-60-16c-11.88-15.13-4.3-20.86-12-24-7.7-3.14-18.73 14.27-1 36s54.37 32.03 81 23a102.19 102.19 0 0047-33c6.56 2.63 17.24 2.31 27 3 95 6.67 144.25-71.23 151.07-142.18C1209.89 208.6 1224.33 97 1208 61c-14.6 8.74-32.52 24.9-37.93 34.82-5.64-7.16-21.51-13.4-28.07-14.82 2.48-9.03-6.5-33.89-12-42-9.79 4.54-26.43 28.07-33 40-46.41 29.28-47.41 80.8-60 98-26.22 35.8-78.35 78.87-82 146.82z" fill="#000"/>
<path d="M955 323.82c-1.52 28.2 20.57 52.06 46 64.59-2.13 3.75-9.45 14.91-29 23.59s-48.12-.87-60-16c-11.88-15.13-4.3-20.86-12-24-7.7-3.14-18.73 14.27-1 36s54.37 32.03 81 23a102.19 102.19 0 0047-33c6.56 2.63 17.24 2.31 27 3 95 6.67 144.25-71.23 151.07-142.18C1209.89 208.6 1224.33 97 1208 61c-14.6 8.74-32.52 24.9-37.93 34.82-5.64-7.16-21.51-13.4-28.07-14.82 2.48-9.03-6.5-33.89-12-42-9.79 4.54-26.43 28.07-33 40-46.41 29.28-47.41 80.8-60 98-26.22 35.8-78.35 78.87-82 146.82z" fill="#fff" stroke="#442DDB" stroke-width="12" stroke-miterlimit="3" stroke-linecap="square"/>
<path d="M955 323.82c-1.52 28.2 20.57 52.06 46 64.59-2.13 3.75-9.45 14.91-29 23.59s-48.12-.87-60-16c-11.88-15.13-4.3-20.86-12-24-7.7-3.14-18.73 14.27-1 36s54.37 32.03 81 23a102.19 102.19 0 0047-33c6.56 2.63 17.24 2.31 27 3 95 6.67 144.25-71.23 151.07-142.18C1209.89 208.6 1224.33 97 1208 61c-14.6 8.74-32.52 24.9-37.93 34.82-5.64-7.16-21.51-13.4-28.07-14.82 2.48-9.03-6.5-33.89-12-42-9.79 4.54-26.43 28.07-33 40-46.41 29.28-47.41 80.8-60 98-26.22 35.8-78.35 78.87-82 146.82z" fill="#fff"/>
<path d="M1018.81 192.94c-16.8 6.75-51.53 63.62-55.18 72.04-3.65 8.41-12.49 36.82.74 43.17 13.22 6.36 49.17-17.32 60.44-16.47 11.28.86 79.2 22.05 85.14 27.52 5.93 5.46 11.78 43.01 20.68 44.7 8.89 1.67 23.67-3.56 31.03-25.74 7.37-22.17 10.36-88.13 3.42-98.02-6.93-9.88-21.57-19.69-28.47-21.21-6.91-1.53-14.68-.45-37.36-9.86-22.69-9.4-27.8-8.12-35.14-12.7-7.35-4.56-28.49-10.18-45.3-3.43z" fill="#fff" stroke="#5144DB" stroke-width="5" stroke-miterlimit="3" stroke-linecap="square"/>
<path d="M1043.75 274.51l-1.09 3.33a4 4 0 002.55 5.04l1.9.63a4 4 0 005.05-2.56l1.09-3.32 3.33 1.09c2.1.69 4.36-.46 5.04-2.56l.63-1.9a4 4 0 00-2.56-5.04l-3.32-1.1 1.09-3.32a4 4 0 00-2.55-5.05l-1.9-.62a4 4 0 00-5.05 2.55l-1.09 3.33-3.33-1.1a4 4 0 00-5.05 2.56l-.62 1.9a4 4 0 002.55 5.05l3.33 1.09zM1116.3 265.31l-1.09 3.33a4 4 0 002.55 5.05l1.9.62a4 4 0 005.05-2.55l1.09-3.33 3.33 1.1a4 4 0 005.05-2.56l.62-1.9a4 4 0 00-2.55-5.05l-3.33-1.1 1.09-3.32a4 4 0 00-2.55-5.04l-1.9-.63a4 4 0 00-5.05 2.56l-1.09 3.32-3.33-1.09a4 4 0 00-5.04 2.55l-.63 1.9a4 4 0 002.56 5.05l3.32 1.1z" fill="#fff" stroke="#5144DB" stroke-width="5" stroke-miterlimit="3" stroke-linecap="square"/>
<path d="M1033 245a13 13 0 100-26 13 13 0 000 26zM1087 297.35a13 13 0 100-26 13 13 0 000 26z" fill="#fff" stroke="#5144DB" stroke-width="5" stroke-miterlimit="3" stroke-linejoin="round"/>
<path d="M996.58 301.79c17.12-15.23 31.46-21.23 43-18 7.76 2.17 3.76 16.99-12 44.45" fill="#fff"/>
<path d="M996.58 301.79c17.12-15.23 31.46-21.23 43-18 7.76 2.17 3.76 16.99-12 44.45" stroke="#5144DB" stroke-width="5" stroke-miterlimit="3" stroke-linecap="round" stroke-linejoin="round"/>
<path d="M1076.07 341c1.88-26.34 7.34-40.78 16.38-43.33 9.05-2.54 16.9 9.9 23.55 37.33" fill="#fff"/>
<path d="M1076.07 341c1.88-26.34 7.34-40.78 16.38-43.33 9.05-2.54 16.9 9.9 23.55 37.33" stroke="#5144DB" stroke-width="5" stroke-miterlimit="3" stroke-linecap="round" stroke-linejoin="round"/>
<path d="M1049 180c-10.81 23.85-9.81 38.85 3 45 6.58 3.16 16.6-5.5 30.07-25.95" fill="#fff"/>
<path d="M1049 180c-10.81 23.85-9.81 38.85 3 45 6.58 3.16 16.6-5.5 30.07-25.95" stroke="#5144DB" stroke-width="5" stroke-miterlimit="3" stroke-linecap="round" stroke-linejoin="round"/>
<path d="M1107 207c-11.09 18.85-12.76 29.85-5 33 13.67 5.54 28.33-1.46 44-21" fill="#fff"/>
<path d="M1107 207c-11.09 18.85-12.76 29.85-5 33 13.67 5.54 28.33-1.46 44-21M1094.93 109.96c-1.19 1.3-6.91 10.33-9.34 19.19M1137.01 124.27c-2.24 3.44-8.82 11.76-11.01 18.73M1088.21 151.65c2.4 6 9.13 9.57 17.16 6.93" stroke="#5144DB" stroke-width="5" stroke-miterlimit="3" stroke-linecap="round" stroke-linejoin="round"/>
<path d="M1041.4 170.3a111.92 111.92 0 01-11.43-77.96c13.1-60.62 72.95-99.2 133.57-86.1 60.62 13.1 99.2 72.95 86.1 133.58a111.94 111.94 0 01-45.93 68.67c-27.65.57-65.73-7.72-97.32-14.54-33.03-7.14-53.53-17.15-64.99-23.64z" fill="#fff" fill-opacity=".1" stroke="#fff" stroke-width="6.24" stroke-miterlimit="3" stroke-linecap="round" stroke-linejoin="round"/>
<path d="M1085.54 35.6c-10.83 5.58-27.41 22.84-30.71 34.32a5.4 5.4 0 003.02 6.31l5.86 2.45c2.39 1 5.01-.18 5.85-2.63 4-11.6 19.89-20.83 27.67-26.7a4.34 4.34 0 00.68-6.37l-5.15-5.98a6.23 6.23 0 00-7.22-1.4z" fill="#fff" fill-opacity=".15"/>
<path d="M17.38 693.27L.62 686.73a286.79 286.79 0 0114.52-31.51 331.46 331.46 0 0118.37-30.25 383.22 383.22 0 0121.84-28.9 435.42 435.42 0 0124.94-27.48 499.87 499.87 0 0127.69-25.99 563.29 563.29 0 0130.09-24.41 627.78 627.78 0 0132.16-22.75 681.67 681.67 0 0133.87-21.01 738.21 738.21 0 0179.93-40.08 744.64 744.64 0 0183.08-29.98 683.81 683.81 0 0141.56-10.88 632.75 632.75 0 0140.97-7.95 551.8 551.8 0 0139.92-4.88A460.88 460.88 0 01528 379c10.59.01 21.17.53 31.72 1.56a378.22 378.22 0 0131.43 4.41 455.41 455.41 0 0131.21 6.83 586.79 586.79 0 0131.04 8.86 781.63 781.63 0 0130.95 10.48 1174.9 1174.9 0 0130.92 11.71 1983 1983 0 0130.96 12.55l31.08 13c11.16 4.71 22.33 9.38 33.52 14.02 11.22 4.65 22.48 9.19 33.79 13.63 11.31 4.44 22.68 8.7 34.13 12.78a836.17 836.17 0 0034.54 11.47 643.55 643.55 0 0035.02 9.7c11.77 2.9 23.64 5.4 35.58 7.48a453.82 453.82 0 0036.2 4.82 409.83 409.83 0 0036.92 1.7c9.41.01 18.83-.43 28.2-1.31 8.8-.83 17.55-2.1 26.23-3.81a236.07 236.07 0 0024.27-6.12 220.2 220.2 0 0022.35-8.27 203.5 203.5 0 0039.08-22.32 199.18 199.18 0 0031.79-29 208.64 208.64 0 0024.66-34.5 228.8 228.8 0 0017.6-38.79 250.87 250.87 0 0010.55-41.82 270.05 270.05 0 003.51-43.52c0-19.38-2.03-38.7-6.05-57.65a70.48 70.48 0 00-2.97-10.07 100.07 100.07 0 00-4.6-10.45 125.95 125.95 0 00-5.85-10.31 139.97 139.97 0 00-13.85-18.4 102.75 102.75 0 00-7.09-7.22 65.38 65.38 0 00-6.45-5.28c-.88-.63-1.8-1.22-2.74-1.77a21.2 21.2 0 00-2.23-1.13l7.16-16.52c1.43.62 2.82 1.33 4.16 2.12 1.41.82 2.78 1.7 4.11 2.65a83.2 83.2 0 018.24 6.74c2.89 2.67 5.65 5.48 8.27 8.42a155.22 155.22 0 0122.32 32.54c2.03 3.99 3.84 8.1 5.41 12.29a90.67 90.67 0 013.71 12.61 296.3 296.3 0 016.45 61.42 286.46 286.46 0 01-3.75 46.42 268.06 268.06 0 01-11.3 44.81 245.83 245.83 0 01-18.98 41.84 227.42 227.42 0 01-26.79 37.48 217.25 217.25 0 01-34.68 31.63 221.5 221.5 0 01-42.54 24.3 239.4 239.4 0 01-24.19 8.95 254.37 254.37 0 01-26.11 6.58 278.27 278.27 0 01-28.01 4.07c-9.94.94-19.92 1.4-29.91 1.39-12.87-.01-25.73-.6-38.55-1.78a467.86 467.86 0 01-37.65-5.01 542.36 542.36 0 01-36.79-7.73 659.02 659.02 0 01-36-9.98 843.04 843.04 0 01-35.3-11.72 1164.6 1164.6 0 01-34.66-12.98 1895.86 1895.86 0 01-34.1-13.75l-33.63-14.06a6515.63 6515.63 0 00-30.98-12.97 1986.8 1986.8 0 00-30.68-12.43 1104.55 1104.55 0 00-30.43-11.52 751.48 751.48 0 00-30.24-10.24 569.6 569.6 0 00-30.08-8.59 451.33 451.33 0 00-29.99-6.57 363.67 363.67 0 00-29.95-4.19A308.82 308.82 0 00528 397a441.4 441.4 0 00-36.91 1.6 526.88 526.88 0 00-38.61 4.72 604.84 604.84 0 00-39.8 7.72 672.25 672.25 0 00-40.48 10.59 731.02 731.02 0 00-81.08 29.26A720.52 720.52 0 00213.14 490a665.24 665.24 0 00-32.98 20.45 608.45 608.45 0 00-31.23 22.1 545.56 545.56 0 00-29.14 23.64c-9.21 8-18.12 16.36-26.69 25.05a417.2 417.2 0 00-23.92 26.35 359.18 359.18 0 00-20.8 27.54 310.52 310.52 0 00-17.37 28.59 272.26 272.26 0 00-13.63 29.55z" fill="#446ADB"/>
<path d="M1231.04 184.97c-6.22-2.99-7.18-13.9-2.15-24.34 5.03-10.44 14.15-16.49 20.37-13.5l-18.22 37.84z" fill="#fff"/>
<path d="M1237 164c16.33 7 44.67 41.13 51 71 29.39 138.59-44.47 298-231 298-196.68 0-358.03-145-529-145C342.14 388 77 515 9 690" stroke="#fff" stroke-width="18" stroke-miterlimit="3" stroke-linejoin="round" stroke-dasharray="112 4"/>
</svg>
