<svg fill="none" height="278" width="227" xmlns="http://www.w3.org/2000/svg"><path d="m65.15 121.87a14.56 14.56 0 0 1 7.87 19.01l-21.18 51.07c-1.54 3.7-7.6 4.72-13.54 2.26l-5.37-2.23c-5.93-2.46-9.5-7.47-7.96-11.17l21.17-51.07a14.56 14.56 0 0 1 19.01-7.87z" fill="#fff" opacity=".65"/><path d="m28.47 214.3a9.31 9.31 0 1 0 0-18.62 9.31 9.31 0 0 0 0 18.63zm-9.11 29.4a4.36 4.36 0 1 0 0-8.73 4.36 4.36 0 0 0 0 8.72zm2.91-18.92a7.28 7.28 0 1 1 14.56 0 7.28 7.28 0 0 1 -14.56 0z" fill="#fff" fill-opacity=".35"/><path d="m42.64 213.14c-.01 1.15-17.93 2.67-30.55 11.64-14.29 10.16-13.82 30.92-4.36 29.1 9.45-1.82-3.74-13.72 11.63-21.82 12.04-6.35 25.27-6.3 25.61-5.38 3.21 8.48 9.57 15.52 18.04 21.38-2.73 15.1-7.6 24.81-2.9 26.19 14.9 4.36 23.84-6.96 27.64-14.55 17.58 4.88 29.94 5.1 46.55-1.46-1.93 8.28-5.33 19.26 0 18.92 18.85-1.23 32.92-29.12 37.83-45.84 4.9-16.72 11.46-50.46 10.18-76.37-1.27-25.92-10.2-59.52-13.1-72.75-2.68-12.28-8.49-23.6-17.45-34.02a85.77 85.77 0 0 0 -10.18 23.84c-11.76-2.75-18.52-4.17-32.01-1.46-1.6-5.73-6.2-17.87-14.55-26.19-8.84 11.3-16.84 50.43-18.91 58.2-6.36 23.81-6.92 39.01-14.55 52.38-10.78 18.85-18.53 27.49-18.92 58.2z" fill="#fff"/><path d="m115.39 89.48c1.57 4 2.06 8.85 1.45 14.55m28.85-14.55c1.57 4 2.06 8.85 1.45 14.55m-20.11 16c.42 1.94 1.88 2.9 4.36 2.9 2.49 0 4.43-1.45 5.82-4.36" stroke="#5144db" stroke-linecap="round" stroke-linejoin="round" stroke-miterlimit="3" stroke-width="4.37"/><g fill="#fff"><path d="m121.2 159.31a78.56 78.56 0 1 0 0-157.13 78.56 78.56 0 0 0 0 157.13z" fill-opacity=".1" stroke="#fff" stroke-linecap="square" stroke-miterlimit="3" stroke-width="4.37"/><path d="m82.58 28.23c-6.75 3.41-17.12 14.05-19.22 21.17a3.35 3.35 0 0 0 1.85 3.93l3.63 1.54a2.7 2.7 0 0 0 3.64-1.6c2.54-7.19 12.44-12.85 17.29-16.45a2.7 2.7 0 0 0 .45-3.95l-3.16-3.74a3.87 3.87 0 0 0 -4.48-.9z" fill-opacity=".15"/><path d="m42.68 158.16 7.08-.3c9.78-.43 19.26-1.63 21.18-2.69 1.91-1.06 11.4-2.26 21.17-2.68l111.56-4.78c.72 8.73-2.4 18.34-9.41 28.79 15.13-3.46 24.77-13.32 28.02-26.19.48-1.9.8-5.02.72-6.98l-.38-8.85c-.09-1.96-1-4.83-2.05-6.42-2.1-3.17-1.85-8.26.55-11.35l1.56-2a13.34 13.34 0 0 0 2.4-7.54l-.16-3.97a4.22 4.22 0 0 0 -4.4-4.03l-26.99 1.15a4.22 4.22 0 0 0 -4.03 4.4l.17 3.97c.1 2.32 1.59 5.48 3.32 7.03l3.07 2.76c2.9 2.62 5.4 7.91 5.57 11.83l.08 1.77-110.28 4.5c-9.78.4-19.33 0-21.33-.89-2-.9-11.55-1.28-21.32-.86l-7.09.3a7.1 7.1 0 0 0 -6.78 7.4l.38 8.85a7.1 7.1 0 0 0 7.39 6.78z" stroke="#5144db" stroke-linecap="round" stroke-linejoin="round" stroke-miterlimit="3" stroke-width="2.91"/><path d="m92.1 157.86c2.87-10.42 6.75-15.27 11.65-14.55 4.9.71 6.84 6.04 5.82 16"/></g><path d="m92.1 157.86c2.87-10.42 6.75-15.27 11.65-14.55 4.9.71 6.84 6.04 5.82 16" stroke="#5144db" stroke-linecap="round" stroke-linejoin="round" stroke-miterlimit="3" stroke-width="2.91"/><path d="m143.09 160.8c.74-10.77 3.58-16.29 8.53-16.56 4.94-.27 7.9 4.57 8.87 14.53" fill="#fff"/><path d="m143.09 160.8c.74-10.77 3.58-16.29 8.53-16.56 4.94-.27 7.9 4.57 8.87 14.53" stroke="#5144db" stroke-linecap="round" stroke-linejoin="round" stroke-miterlimit="3" stroke-width="2.91"/></svg>