<svg width="218" height="124" fill="none" xmlns="http://www.w3.org/2000/svg">
<path fill-rule="evenodd" clip-rule="evenodd" d="M169.2 74.9A61.8 61.8 0 00108.83 0a61.8 61.8 0 00-60.37 74.9c1.3.27 2.62.5 3.93.74 5.66 1 11.35 1.8 17.05 2.42 6.3.7 12.63 1.22 18.97 1.55a378.53 378.53 0 0059.79-1.55 266.17 266.17 0 0020.98-3.16zm-7.78 19.25a61.72 61.72 0 01-105.18 0c3.75.56 7.52 1.05 11.29 1.46a355.1 355.1 0 0019.95 1.63 398.17 398.17 0 0042.7 0c6.67-.36 13.32-.9 19.96-1.63 3.77-.41 7.53-.9 11.28-1.46z" fill="#fff"/>
<path d="M175.62 40.96c22.56 5 36.9 12.47 36.9 20.81 0 15.02-46.46 27.2-103.69 27.2-57.22 0-103.68-12.18-103.68-27.2 0-8.18 13.77-15.51 35.55-20.5" stroke="#fff" stroke-width="10.29" stroke-miterlimit="3" stroke-linecap="round"/>
</svg>
