<svg width="481" height="236" fill="none" xmlns="http://www.w3.org/2000/svg">
<path opacity=".2" d="M357.38 111.61a17.93 17.93 0 1129.87-19.84 17.93 17.93 0 01-29.87 19.84z" fill="#fff"/>
<path opacity=".15" d="M388 138.68a11.62 11.62 0 1119.37-12.86A11.62 11.62 0 01388 138.68z" fill="#fff"/>
<path opacity=".25" d="M332.33 149.47a18.57 18.57 0 1130.94-20.55 18.57 18.57 0 01-30.94 20.55z" fill="#fff"/>
<path opacity=".15" d="M409.17 107.43a11.62 11.62 0 1119.36-12.86 11.62 11.62 0 01-19.36 12.86zM445.02 108.63a6.68 6.68 0 1111.12-7.38 6.68 6.68 0 01-11.12 7.38zM472.87 111.18a4.02 4.02 0 116.69-4.45 4.02 4.02 0 01-6.7 4.45zM428.85 125.35a7.3 7.3 0 1112.17-8.08 7.3 7.3 0 01-12.17 8.08z" fill="#fff"/>
<path fill-rule="evenodd" clip-rule="evenodd" d="M299.54 178.78l3.5.1c.28-.39.73-.81 1.63-1.28a59.5 59.5 0 007.28-4.55 54.33 54.33 0 0015.67-17.86 62.14 62.14 0 003.58-7.83 68.8 68.8 0 002.75-9.19c.82-3.63 1.42-7.3 1.8-10.99.35-3.46.46-6.93.33-10.41a57.68 57.68 0 00-1.06-9.08 52.32 52.32 0 00-10.55-22.72 61.05 61.05 0 00-6.3-6.76 70.6 70.6 0 00-8.2-6.54 95.4 95.4 0 00-5.67-3.59 552.6 552.6 0 00-8.26-.67l-.02.24a6.42 6.42 0 01-.64 2.27 7.63 7.63 0 01-1.45 2.02c-.52.53-1.1.99-1.73 1.39a17.35 17.35 0 01-3.61 1.74 34.23 34.23 0 01-4.99 1.34c-1.73.34-3.47.6-5.22.8-1.86.21-3.73.37-5.6.47-2.47.14-4.95.22-7.42.24a234.28 234.28 0 01-11.96-.2 368.27 368.27 0 01-9.8-.51A508.2 508.2 0 01228.47 76a948.01 948.01 0 01-17.07-1.77c-3.28-.4-4.28-2.82-2.2-5.4.98-1.24 2.2-2.72 3.7-4.48-33.58-.23-66.02.66-89.03 2.6-25.55 2.16-58.47 17.91-73.47 35.16 0 0-10.76 11.83-28.65 32.56a41.3 41.3 0 017.47 11.06 51.08 51.08 0 012.92 8.21 87.1 87.1 0 011.86 9.03c.38 2.49.59 5.01.65 7.52.03 1.82-.03 3.63-.2 5.44 12.6.38 28.67.25 48.07.64 25.21.5 69.9.11 126.06.6a256.66 256.66 0 01-6.16-6.47c-2.22-2.45-1.36-4.7 1.94-5.02 2-.19 10-.86 18-1.45 5.29-.39 10.59-.72 15.9-.98 7.3-.36 14.62-.56 21.94-.58 4.6-.02 9.22.13 13.82.45 1.73.13 3.46.28 5.19.47 1.36.15 2.72.34 4.08.56 1.8.29 3.58.66 5.35 1.12a24.83 24.83 0 015.98 2.41 10.31 10.31 0 012.62 2.26 6.89 6.89 0 011.14 2.16c.1.38.19.77.23 1.16.1 1.12.27 2.24.49 3.34l.44 2.18zm15.55-109.6c5.22 1.02 11.62 4.37 15.01 7.96 23.75 25.19 20.31 78.34-6.37 96.5-2.53 1.72-6.19 3.22-9.88 4.2l1.05-.75a60.21 60.21 0 0012.37-12.14 60 60 0 004.74-7.37 67.25 67.25 0 003.87-8.46 74.87 74.87 0 002.95-9.85 98.72 98.72 0 001.89-11.58c.38-3.69.5-7.4.36-11.1a62.85 62.85 0 00-1.16-9.87 59.03 59.03 0 00-2.51-8.94 58.02 58.02 0 00-9.04-15.94 67.1 67.1 0 00-6.8-7.3 73.66 73.66 0 00-6.48-5.36zm-296.2 68.8a2287.62 2287.62 0 00-16.07 18.78c-4.97 5.87-3.2 12.9 3.97 15.7 5.18 2.03 12.98 2.92 23.31 3.35.17-1.73.23-3.47.2-5.22a54.02 54.02 0 00-.6-6.96 86.01 86.01 0 00-1.76-8.59 47.45 47.45 0 00-2.67-7.5 36.94 36.94 0 00-3.55-6.12 33.7 33.7 0 00-2.83-3.44zm193.7-67.38a481.08 481.08 0 0120.34-23.17 384.98 384.98 0 0121.9-21.62 91.38 91.38 0 0111.3-8.78c4.23-2.78 8.66-5.25 13.25-7.38a114.11 114.11 0 0115.7-5.9A150.14 150.14 0 01311 0c-1.38 4.22-2.74 8.45-4.1 12.68a1037.48 1037.48 0 00-8.86 29.34c-1.02 3.6-1.98 7.21-2.9 10.84-.77 3.14-1.47 6.3-2.1 9.48a51.76 51.76 0 00-.72 4.95c-.04.34-.13.67-.28.98a4.1 4.1 0 01-.75 1.05c-.33.32-.7.61-1.08.86a13.89 13.89 0 01-2.87 1.38c-.37.13-.74.26-1.11.37-1.1.34-2.21.61-3.33.83a81.27 81.27 0 01-10.32 1.2 176 176 0 01-12.63.22 339.36 339.36 0 01-16.11-.69c-5.02-.32-10.02-.72-15.02-1.2a802.67 802.67 0 01-16.22-1.69zm82.3 103.03c.13 1.24.32 2.47.56 3.69.38 1.97.83 3.93 1.33 5.88.39 1.54.8 3.08 1.25 4.61a246.52 246.52 0 003.23 10.42l1.74 5.16a578 578 0 005.15 14.46c2.19 5.9 4.42 11.79 6.7 17.67a184.13 184.13 0 01-18.35-3.3 128.57 128.57 0 01-17.46-5.39 112.48 112.48 0 01-14.48-6.83 95.1 95.1 0 01-12.14-8.12 387.9 387.9 0 01-24.18-20.73 458.33 458.33 0 01-22-21.88c5.47-.48 10.93-.92 16.39-1.33 5.27-.38 10.54-.71 15.8-.97a478.9 478.9 0 0121.78-.58 180.19 180.19 0 0118.59.9c1.3.15 2.6.32 3.89.53 1.69.28 3.36.63 5 1.06 1.06.27 2.09.61 3.09 1.03.66.27 1.3.6 1.93.97a6.1 6.1 0 011.6 1.37 2.94 2.94 0 01.5.92c.04.15.07.3.09.46z" fill="#fff"/>
<path fill-rule="evenodd" clip-rule="evenodd" d="M35.86 118.46c.22 3.02.8 5.62 1.74 7.82a217.23 217.23 0 0126.05-29.61 14.53 14.53 0 01-2.6-4.41 73.87 73.87 0 00-10.65 9.85s-5.26 5.79-14.54 16.35zm10.68 15.92a13.5 13.5 0 01-7.1-4.84c8.68-11.91 17.57-22.11 26.7-30.6 2.66 1.93 6.17 3.19 10.52 3.76 10.66 1.41 26.4.53 47.22-2.64 4.27 11.2 5.44 30.95 2.28 36.59-36.94 3.37-63.48 2.62-79.62-2.27z" fill="#5144DB"/>
<path fill-rule="evenodd" clip-rule="evenodd" d="M77.22 128.06c-.02.24-.08.47-.17.69a1.7 1.7 0 01-.94.9 2.87 2.87 0 01-1.57.17 1.72 1.72 0 01-1.13-.77 2.6 2.6 0 01-.32-.74.51.51 0 01.36-.63.5.5 0 01.4.05c.11.07.2.18.24.31.04.16.1.31.2.46.04.07.1.14.19.2a.6.6 0 00.25.1 1.79 1.79 0 001-.11.82.82 0 00.23-.16c.06-.06.1-.13.14-.2.05-.12.08-.24.1-.37a.51.51 0 01.56-.46.51.51 0 01.46.56zm-4.77-9.96c1.1.15.53 2.37.29 3.32-.24.95-.73 3.2-1.66 3.1-.92-.08-.87-2.31-.58-3.67.3-1.37.84-2.9 1.95-2.75zM59.1 133.67c.44-1.58.89-3.1 1.35-4.55 3.6-11.4 7.88-18.59 12.8-21.53-.04 2.11 0 3.56.13 4.34.12.77.28 1.46.46 2.06 1.6-.21 3.52-.27 5.72-.19 2.2.09 4.1.39 5.7.9a21.32 21.32 0 014.16-3.23c1.27-.7 2.98-1.29 5.13-1.74-2.36 11.9-3.42 20.02-3.2 24.38 2.48 48.2-45.05 45.96-32.25-.44zm22.73-15.2c1.1.14.74 2.32.5 3.27-.24.96-.74 3.2-1.66 3.1-.92-.08-.87-2.31-.58-3.67.3-1.36.64-2.86 1.74-2.7z" fill="#fff"/>
</svg>
