<svg xmlns="http://www.w3.org/2000/svg" viewBox="0 0 32 32"><style id="stylish-4" class="stylish" type="text/css">.hemingway-richtext-toolbar-container .hemingway-richtext-style-button {
    color: #000;
}
body[ng-app="icomoonApp"] input {
    color: black;
}
.redactor-styles pre {
    color: white !important;
}</style><path fill-rule="evenodd" clip-rule="evenodd" fill="#FFF" d="M15.764 22.223h1.315s.394-.044.6-.262c.184-.2.18-.574.18-.574s-.03-1.764.79-2.023c.81-.255 1.844 1.705 2.942 2.46.832.57 1.464.445 1.464.445l2.936-.04s1.538-.097.81-1.304c-.06-.1-.426-.894-2.186-2.526-1.843-1.71-1.594-1.434.624-4.39 1.353-1.804 1.893-2.902 1.724-3.374-.16-.45-1.153-.33-1.153-.33l-3.306.02s-.247-.034-.428.074c-.178.108-.293.356-.293.356s-.522 1.394-1.223 2.58c-1.47 2.5-2.06 2.633-2.3 2.476-.563-.36-.42-1.454-.42-2.23 0-2.423.365-3.435-.72-3.696-.357-.085-.623-.143-1.544-.15-1.182-.014-2.18.003-2.743.28-.378.185-.667.595-.49.62.218.027.713.13.975.49.34.46.33 1.496.33 1.496s.193 2.852-.46 3.206c-.442.245-1.056-.252-2.37-2.52-.67-1.163-1.18-2.446-1.18-2.446s-.1-.24-.273-.37c-.212-.155-.506-.204-.506-.204l-3.145.02s-.473.015-.647.22c-.154.183-.01.56-.01.56s2.46 5.757 5.245 8.657c2.553 2.66 5.454 2.485 5.454 2.485z"/></svg>